<svg id="db1b8f1f-ca2f-49eb-8381-967c94c07686" data-name="Layer 1" xmlns="http://www.w3.org/2000/svg" viewBox="0 0 900 900"><defs><style>.\38 d1b6040-5efd-47e3-a6b4-2da340dc07bc,.b2531bdd-27e6-41a8-a6cf-cf004c4b16cc{fill:#194d7c;}.b2531bdd-27e6-41a8-a6cf-cf004c4b16cc{font-size:49.6289px;font-family:padmaa-Bold.1.1, padmaa-Bold.1.1;font-weight:700;}.\32 fefb172-2768-436b-97b7-09924049f8d5,.\37 a895720-d9b9-4b53-b8f0-4f089f42efca{fill:#ff7c00;}.\35 eb4d632-7848-4fa2-9644-7799c5a44d08,.\37 a895720-d9b9-4b53-b8f0-4f089f42efca{fill-rule:evenodd;}.\35 eb4d632-7848-4fa2-9644-7799c5a44d08{fill:#0da31b;}</style></defs><title>itc logo</title><path class="8d1b6040-5efd-47e3-a6b4-2da340dc07bc" d="M532.6747,587.91036v6.04031q-24.42317,2.893-32.30195,4.20173a176.56358,176.56358,0,0,0-18.90849,4.46473V585.54674q-8.66633,9.1956-14.18125,12.34315-8.66633,4.9854-22.32243,4.98976-17.8623,0-31.2514-15.75732-14.711-17.06748-14.70677-44.64485,0-32.30195,16.01984-50.94768,14.18137-16.54511,34.66533-16.54487a35.04389,35.04389,0,0,1,15.10054,3.15166q6.69673,3.15093,15.88834,13.1307v-48.059q0-9.97734-4.07047-12.60566-4.07471-2.622-15.88834-2.62614v-6.30283h56.46272V572.67856q0,7.09087,2.10086,10.242Q522.69118,587.91254,532.6747,587.91036ZM480.67646,569.7899V505.97356a43.86506,43.86506,0,0,0-4.727-8.14093q-6.56777-8.13706-15.75708-8.14093-12.87036,0-18.1207,14.9688Q437.868,516.47884,437.87,538.80078q0,19.69677,2.62614,30.20109,4.72712,19.17295,18.38322,19.171,7.87842,0,15.49432-8.14093Q480.67658,573.20553,480.67646,569.7899Z"/><text class="b2531bdd-27e6-41a8-a6cf-cf004c4b16cc" transform="translate(199.93424 640.28483) scale(1.12284 1)">Trading Corporation</text><path class="7a895720-d9b9-4b53-b8f0-4f089f42efca" d="M552.61677,443.91383l-2.06979,4.63411L544.0409,463.107a7.99932,7.99932,0,0,0,1.5965.90423c1.73072.61466,2.95987-3.81456,5.67252-2.83272,2.7126.989,1.97795-.73461,5.42525-.49445,3.45437.24723,1.48345,3.82172-.4945,4.68352-1.97088.8618-6.77452-.12719-2.83272,3.69453,3.94887,3.81465,1.8508-2.5855,6.66147-2.5855s5.67252,1.72369,6.03987,4.06187c.37438,2.33827-2.46542,2.83272-5.55244,4.18907-3.08,1.34927-7.64339,4.3091-7.88355,7.14183-.2543,2.83272-2.71264,4.55633-3.45437,1.5965-.74172-2.95276-1.60357-3.07288-4.69059-1.47638-3.08,1.60349-.36731,4.68352,2.09807,7.14183,2.46537,2.46537.36731,2.33827.36731,2.33827-7.25483-3.46153-10.55377-6.49905-11.9666-8.18739l-8.62532,19.30632-2.06979,4.634-42.74506,95.66955c49.6679-17.03169,104.29483,0,104.29483,0V486.9626a13.75226,13.75226,0,0,1-3.24953-4.8459c-2.649-7.33973.86892-7.14191,1.36337-11.69824.23313-2.14045-1.36337-2.59257-3.45433-1.73068C575.66,470.701,574.007,469.924,573.018,466.34952s0-4.55633,0-4.55633c-3.32722.37433-3.45437-3.56742-1.72365-4.55642,1.19384-.67813,2.21815-2.71967,3.22124-4.32324a35.46651,35.46651,0,0,1,9.30345,5.10735.85346.85346,0,0,1,.09891.07071c.64989.50153,1.27861,1.02426,1.89318,1.56115.02121.02121.04945.04234.07067.06355V369.465Zm5.60185,45.712c5.30517,0,4.81067,1.60357,8.9997,5.17806,4.1961,3.56733,1.978,7.13475-.12008,9.84736a23.68292,23.68292,0,0,0-4.93782,11.33089c-.98192,5.54533-3.56738,1.60357-4.43629.24723-.8618-1.35634-2.2181-2.5855-1.84373-8.25094.36028-5.66545-3.58152-2.33818-4.93782-9.72732S552.91345,489.62579,558.21862,489.62579Z"/><path class="5eb4d632-7848-4fa2-9644-7799c5a44d08" d="M567.85543,362.52215l25.543-32.30752,12.29847,40.24364S593.3984,352.258,567.85543,362.52215Z"/><path class="7a895720-d9b9-4b53-b8f0-4f089f42efca" d="M597.63646,482.88658c-.02824-.34614-.0777-.67813-.12008-1.01719q-.13776-1.12326-.33906-2.22513c-.07067-.37442-.14836-.74884-.22606-1.12326-.16246-.72056-.35321-1.44111-.55805-2.15459-.09184-.31785-.1625-.64277-.26844-.96063-.30375-.95373-.64993-1.88624-1.02431-2.80453-.16246-.38848-.35321-.75582-.52274-1.13731-.25434-.544-.50157-1.08083-.77708-1.60357-.24016-.46617-.50153-.92544-.76289-1.37747-.23313-.4027-.4804-.79825-.72763-1.19388-.31082-.49445-.62165-.98192-.96071-1.45517-.1766-.26146-.38149-.5086-.56512-.763a35.99181,35.99181,0,0,0-4.65528-5.12149c-.08477-.0777-.16246-.15539-.24723-.23309V486.9626c1.47638,1.54709,2.98811,2.9105,3.77929,4.76122.81946,1.89322,3.9418,3.63813,6.59085,4.82486.28254-.92544.52274-1.872.73465-2.83272.0777-.36735.13422-.7347.20489-1.10912.13418-.71348.24723-1.434.332-2.16865.03531-.33906.08477-.6852.12008-1.03134.09184-1.05962.1625-2.13338.1625-3.22827C597.806,485.06946,597.73536,483.97449,597.63646,482.88658ZM539.421,459.05929a35.60333,35.60333,0,0,0-9.57189,12.71543,16.65727,16.65727,0,0,0,4.20317,10.09467,6.48668,6.48668,0,0,0,.97485,1.41283l9.01379-20.1752A28.37067,28.37067,0,0,1,539.421,459.05929Zm46.4608,35.45491a1.94144,1.94144,0,0,0-1.70248-.02121,2.35439,2.35439,0,0,0-.18367,3.81465,6.06454,6.06454,0,0,0,1.88615,1.17965,1.63319,1.63319,0,0,0,2.36647-1.17965C588.75688,496.64758,587.30167,495.05108,585.88178,494.5142Zm11.75468-11.62762c-.02824-.34614-.0777-.67813-.12008-1.01719q-.13776-1.12326-.33906-2.22513c-.07067-.37442-.14836-.74884-.22606-1.12326-.16246-.72056-.35321-1.44111-.55805-2.15459-.09184-.31785-.1625-.64277-.26844-.96063-.30375-.95373-.64993-1.88624-1.02431-2.80453-.16246-.38848-.35321-.75582-.52274-1.13731-.25434-.544-.50157-1.08083-.77708-1.60357-.24016-.46617-.50153-.92544-.76289-1.37747-.23313-.4027-.4804-.79825-.72763-1.19388-.31082-.49445-.62165-.98192-.96071-1.45517-.1766-.26146-.38149-.5086-.56512-.763a35.99181,35.99181,0,0,0-4.65528-5.12149c-.08477-.0777-.16246-.15539-.24723-.23309V486.9626c1.47638,1.54709,2.98811,2.9105,3.77929,4.76122.81946,1.89322,3.9418,3.63813,6.59085,4.82486.28254-.92544.52274-1.872.73465-2.83272.0777-.36735.13422-.7347.20489-1.10912.13418-.71348.24723-1.434.332-2.16865.03531-.33906.08477-.6852.12008-1.03134.09184-1.05962.1625-2.13338.1625-3.22827C597.806,485.06946,597.73536,483.97449,597.63646,482.88658ZM539.421,459.05929a35.60333,35.60333,0,0,0-9.57189,12.71543,16.65727,16.65727,0,0,0,4.20317,10.09467,6.48668,6.48668,0,0,0,.97485,1.41283l9.01379-20.1752A28.37067,28.37067,0,0,1,539.421,459.05929Zm46.4608,35.45491a1.94144,1.94144,0,0,0-1.70248-.02121,2.35439,2.35439,0,0,0-.18367,3.81465,6.06454,6.06454,0,0,0,1.88615,1.17965,1.63319,1.63319,0,0,0,2.36647-1.17965C588.75688,496.64758,587.30167,495.05108,585.88178,494.5142Zm11.75468-11.62762c-.02824-.34614-.0777-.67813-.12008-1.01719q-.13776-1.12326-.33906-2.22513c-.07067-.37442-.14836-.74884-.22606-1.12326-.16246-.72056-.35321-1.44111-.55805-2.15459-.09184-.31785-.1625-.64277-.26844-.96063-.30375-.95373-.64993-1.88624-1.02431-2.80453-.16246-.38848-.35321-.75582-.52274-1.13731-.25434-.544-.50157-1.08083-.77708-1.60357-.24016-.46617-.50153-.92544-.76289-1.37747-.23313-.4027-.4804-.79825-.72763-1.19388-.31082-.49445-.62165-.98192-.96071-1.45517-.1766-.26146-.38149-.5086-.56512-.763a35.99181,35.99181,0,0,0-4.65528-5.12149c-.08477-.0777-.16246-.15539-.24723-.23309V486.9626c1.47638,1.54709,2.98811,2.9105,3.77929,4.76122.81946,1.89322,3.9418,3.63813,6.59085,4.82486.28254-.92544.52274-1.872.73465-2.83272.0777-.36735.13422-.7347.20489-1.10912.13418-.71348.24723-1.434.332-2.16865.03531-.33906.08477-.6852.12008-1.03134.09184-1.05962.1625-2.13338.1625-3.22827C597.806,485.06946,597.73536,483.97449,597.63646,482.88658ZM585.88178,494.5142a1.94144,1.94144,0,0,0-1.70248-.02121,2.35439,2.35439,0,0,0-.18367,3.81465,6.06454,6.06454,0,0,0,1.88615,1.17965,1.63319,1.63319,0,0,0,2.36647-1.17965C588.75688,496.64758,587.30167,495.05108,585.88178,494.5142ZM539.421,459.05929a35.60333,35.60333,0,0,0-9.57189,12.71543,16.65727,16.65727,0,0,0,4.20317,10.09467,6.48668,6.48668,0,0,0,.97485,1.41283l9.01379-20.1752A28.37067,28.37067,0,0,1,539.421,459.05929Zm0,0a35.60333,35.60333,0,0,0-9.57189,12.71543,16.65727,16.65727,0,0,0,4.20317,10.09467,6.48668,6.48668,0,0,0,.97485,1.41283l9.01379-20.1752A28.37067,28.37067,0,0,1,539.421,459.05929Zm46.4608,35.45491a1.94144,1.94144,0,0,0-1.70248-.02121,2.35439,2.35439,0,0,0-.18367,3.81465,6.06454,6.06454,0,0,0,1.88615,1.17965,1.63319,1.63319,0,0,0,2.36647-1.17965C588.75688,496.64758,587.30167,495.05108,585.88178,494.5142Zm11.75468-11.62762c-.02824-.34614-.0777-.67813-.12008-1.01719q-.13776-1.12326-.33906-2.22513c-.07067-.37442-.14836-.74884-.22606-1.12326-.16246-.72056-.35321-1.44111-.55805-2.15459-.09184-.31785-.1625-.64277-.26844-.96063-.30375-.95373-.64993-1.88624-1.02431-2.80453-.16246-.38848-.35321-.75582-.52274-1.13731-.25434-.544-.50157-1.08083-.77708-1.60357-.24016-.46617-.50153-.92544-.76289-1.37747-.23313-.4027-.4804-.79825-.72763-1.19388-.31082-.49445-.62165-.98192-.96071-1.45517-.1766-.26146-.38149-.5086-.56512-.763a35.99181,35.99181,0,0,0-4.65528-5.12149c-.08477-.0777-.16246-.15539-.24723-.23309V486.9626c1.47638,1.54709,2.98811,2.9105,3.77929,4.76122.81946,1.89322,3.9418,3.63813,6.59085,4.82486.28254-.92544.52274-1.872.73465-2.83272.0777-.36735.13422-.7347.20489-1.10912.13418-.71348.24723-1.434.332-2.16865.03531-.33906.08477-.6852.12008-1.03134.09184-1.05962.1625-2.13338.1625-3.22827C597.806,485.06946,597.73536,483.97449,597.63646,482.88658Zm0,0c-.02824-.34614-.0777-.67813-.12008-1.01719q-.13776-1.12326-.33906-2.22513c-.07067-.37442-.14836-.74884-.22606-1.12326-.16246-.72056-.35321-1.44111-.55805-2.15459-.09184-.31785-.1625-.64277-.26844-.96063-.30375-.95373-.64993-1.88624-1.02431-2.80453-.16246-.38848-.35321-.75582-.52274-1.13731-.25434-.544-.50157-1.08083-.77708-1.60357-.24016-.46617-.50153-.92544-.76289-1.37747-.23313-.4027-.4804-.79825-.72763-1.19388-.31082-.49445-.62165-.98192-.96071-1.45517-.1766-.26146-.38149-.5086-.56512-.763a35.99181,35.99181,0,0,0-4.65528-5.12149c-.08477-.0777-.16246-.15539-.24723-.23309V486.9626c1.47638,1.54709,2.98811,2.9105,3.77929,4.76122.81946,1.89322,3.9418,3.63813,6.59085,4.82486.28254-.92544.52274-1.872.73465-2.83272.0777-.36735.13422-.7347.20489-1.10912.13418-.71348.24723-1.434.332-2.16865.03531-.33906.08477-.6852.12008-1.03134.09184-1.05962.1625-2.13338.1625-3.22827C597.806,485.06946,597.73536,483.97449,597.63646,482.88658ZM585.88178,494.5142a1.94144,1.94144,0,0,0-1.70248-.02121,2.35439,2.35439,0,0,0-.18367,3.81465,6.06454,6.06454,0,0,0,1.88615,1.17965,1.63319,1.63319,0,0,0,2.36647-1.17965C588.75688,496.64758,587.30167,495.05108,585.88178,494.5142ZM539.421,459.05929a35.60333,35.60333,0,0,0-9.57189,12.71543,16.65727,16.65727,0,0,0,4.20317,10.09467,6.48668,6.48668,0,0,0,.97485,1.41283l9.01379-20.1752A28.37067,28.37067,0,0,1,539.421,459.05929Zm46.4608-9.268a43.31758,43.31758,0,1,0,19.81488,36.38734A43.22922,43.22922,0,0,0,585.88178,449.79124Zm0,67.971a39.36916,39.36916,0,1,1,15.866-31.5837A39.26423,39.26423,0,0,1,585.88178,517.76228Zm11.75468-34.87569c-.02824-.34614-.0777-.67813-.12008-1.01719q-.13776-1.12326-.33906-2.22513c-.07067-.37442-.14836-.74884-.22606-1.12326-.16246-.72056-.35321-1.44111-.55805-2.15459-.09184-.31785-.1625-.64277-.26844-.96063-.30375-.95373-.64993-1.88624-1.02431-2.80453-.16246-.38848-.35321-.75582-.52274-1.13731-.25434-.544-.50157-1.08083-.77708-1.60357-.24016-.46617-.50153-.92544-.76289-1.37747-.23313-.4027-.4804-.79825-.72763-1.19388-.31082-.49445-.62165-.98192-.96071-1.45517-.1766-.26146-.38149-.5086-.56512-.763a35.99181,35.99181,0,0,0-4.65528-5.12149c-.08477-.0777-.16246-.15539-.24723-.23309V486.9626c1.47638,1.54709,2.98811,2.9105,3.77929,4.76122.81946,1.89322,3.9418,3.63813,6.59085,4.82486.28254-.92544.52274-1.872.73465-2.83272.0777-.36735.13422-.7347.20489-1.10912.13418-.71348.24723-1.434.332-2.16865.03531-.33906.08477-.6852.12008-1.03134.09184-1.05962.1625-2.13338.1625-3.22827C597.806,485.06946,597.73536,483.97449,597.63646,482.88658ZM585.88178,494.5142a1.94144,1.94144,0,0,0-1.70248-.02121,2.35439,2.35439,0,0,0-.18367,3.81465,6.06454,6.06454,0,0,0,1.88615,1.17965,1.63319,1.63319,0,0,0,2.36647-1.17965C588.75688,496.64758,587.30167,495.05108,585.88178,494.5142ZM539.421,459.05929a35.60333,35.60333,0,0,0-9.57189,12.71543,16.65727,16.65727,0,0,0,4.20317,10.09467,6.48668,6.48668,0,0,0,.97485,1.41283l9.01379-20.1752A28.37067,28.37067,0,0,1,539.421,459.05929Zm0,0a35.60333,35.60333,0,0,0-9.57189,12.71543,16.65727,16.65727,0,0,0,4.20317,10.09467,6.48668,6.48668,0,0,0,.97485,1.41283l9.01379-20.1752A28.37067,28.37067,0,0,1,539.421,459.05929Zm46.4608,35.45491a1.94144,1.94144,0,0,0-1.70248-.02121,2.35439,2.35439,0,0,0-.18367,3.81465,6.06454,6.06454,0,0,0,1.88615,1.17965,1.63319,1.63319,0,0,0,2.36647-1.17965C588.75688,496.64758,587.30167,495.05108,585.88178,494.5142Zm11.75468-11.62762c-.02824-.34614-.0777-.67813-.12008-1.01719q-.13776-1.12326-.33906-2.22513c-.07067-.37442-.14836-.74884-.22606-1.12326-.16246-.72056-.35321-1.44111-.55805-2.15459-.09184-.31785-.1625-.64277-.26844-.96063-.30375-.95373-.64993-1.88624-1.02431-2.80453-.16246-.38848-.35321-.75582-.52274-1.13731-.25434-.544-.50157-1.08083-.77708-1.60357-.24016-.46617-.50153-.92544-.76289-1.37747-.23313-.4027-.4804-.79825-.72763-1.19388-.31082-.49445-.62165-.98192-.96071-1.45517-.1766-.26146-.38149-.5086-.56512-.763a35.99181,35.99181,0,0,0-4.65528-5.12149c-.08477-.0777-.16246-.15539-.24723-.23309V486.9626c1.47638,1.54709,2.98811,2.9105,3.77929,4.76122.81946,1.89322,3.9418,3.63813,6.59085,4.82486.28254-.92544.52274-1.872.73465-2.83272.0777-.36735.13422-.7347.20489-1.10912.13418-.71348.24723-1.434.332-2.16865.03531-.33906.08477-.6852.12008-1.03134.09184-1.05962.1625-2.13338.1625-3.22827C597.806,485.06946,597.73536,483.97449,597.63646,482.88658Zm0,0c-.02824-.34614-.0777-.67813-.12008-1.01719q-.13776-1.12326-.33906-2.22513c-.07067-.37442-.14836-.74884-.22606-1.12326-.16246-.72056-.35321-1.44111-.55805-2.15459-.09184-.31785-.1625-.64277-.26844-.96063-.30375-.95373-.64993-1.88624-1.02431-2.80453-.16246-.38848-.35321-.75582-.52274-1.13731-.25434-.544-.50157-1.08083-.77708-1.60357-.24016-.46617-.50153-.92544-.76289-1.37747-.23313-.4027-.4804-.79825-.72763-1.19388-.31082-.49445-.62165-.98192-.96071-1.45517-.1766-.26146-.38149-.5086-.56512-.763a35.99181,35.99181,0,0,0-4.65528-5.12149c-.08477-.0777-.16246-.15539-.24723-.23309V486.9626c1.47638,1.54709,2.98811,2.9105,3.77929,4.76122.81946,1.89322,3.9418,3.63813,6.59085,4.82486.28254-.92544.52274-1.872.73465-2.83272.0777-.36735.13422-.7347.20489-1.10912.13418-.71348.24723-1.434.332-2.16865.03531-.33906.08477-.6852.12008-1.03134.09184-1.05962.1625-2.13338.1625-3.22827C597.806,485.06946,597.73536,483.97449,597.63646,482.88658ZM585.88178,494.5142a1.94144,1.94144,0,0,0-1.70248-.02121,2.35439,2.35439,0,0,0-.18367,3.81465,6.06454,6.06454,0,0,0,1.88615,1.17965,1.63319,1.63319,0,0,0,2.36647-1.17965C588.75688,496.64758,587.30167,495.05108,585.88178,494.5142ZM539.421,459.05929a35.60333,35.60333,0,0,0-9.57189,12.71543,16.65727,16.65727,0,0,0,4.20317,10.09467,6.48668,6.48668,0,0,0,.97485,1.41283l9.01379-20.1752A28.37067,28.37067,0,0,1,539.421,459.05929Zm58.21548,23.8273c-.02824-.34614-.0777-.67813-.12008-1.01719q-.13776-1.12326-.33906-2.22513c-.07067-.37442-.14836-.74884-.22606-1.12326-.16246-.72056-.35321-1.44111-.55805-2.15459-.09184-.31785-.1625-.64277-.26844-.96063-.30375-.95373-.64993-1.88624-1.02431-2.80453-.16246-.38848-.35321-.75582-.52274-1.13731-.25434-.544-.50157-1.08083-.77708-1.60357-.24016-.46617-.50153-.92544-.76289-1.37747-.23313-.4027-.4804-.79825-.72763-1.19388-.31082-.49445-.62165-.98192-.96071-1.45517-.1766-.26146-.38149-.5086-.56512-.763a35.99181,35.99181,0,0,0-4.65528-5.12149c-.08477-.0777-.16246-.15539-.24723-.23309V486.9626c1.47638,1.54709,2.98811,2.9105,3.77929,4.76122.81946,1.89322,3.9418,3.63813,6.59085,4.82486.28254-.92544.52274-1.872.73465-2.83272.0777-.36735.13422-.7347.20489-1.10912.13418-.71348.24723-1.434.332-2.16865.03531-.33906.08477-.6852.12008-1.03134.09184-1.05962.1625-2.13338.1625-3.22827C597.806,485.06946,597.73536,483.97449,597.63646,482.88658ZM539.421,459.05929a35.60333,35.60333,0,0,0-9.57189,12.71543,16.65727,16.65727,0,0,0,4.20317,10.09467,6.48668,6.48668,0,0,0,.97485,1.41283l9.01379-20.1752A28.37067,28.37067,0,0,1,539.421,459.05929Zm46.4608,35.45491a1.94144,1.94144,0,0,0-1.70248-.02121,2.35439,2.35439,0,0,0-.18367,3.81465,6.06454,6.06454,0,0,0,1.88615,1.17965,1.63319,1.63319,0,0,0,2.36647-1.17965C588.75688,496.64758,587.30167,495.05108,585.88178,494.5142Z"/><path class="8d1b6040-5efd-47e3-a6b4-2da340dc07bc" d="M266.47328,592.90012V599.203H203.70773v-6.30283q8.40151-2.09893,10.50456-3.93921,3.40994-3.15166,3.41417-11.81763V499.93373q0-8.40224-2.75764-11.16133-2.75752-2.75788-11.16109-4.333v-6.30283h50.42241v99.79426q0,7.09087,2.36362,10.6363Q258.85714,592.11184,266.47328,592.90012Z"/><path class="8d1b6040-5efd-47e3-a6b4-2da340dc07bc" d="M408.80321,592.90012V599.203h-61.715v-6.30283q12.34109-1.04619,12.3429-14.96928V514.37749q0-9.18979-1.83835-13.65621-3.41575-8.13706-12.60542-8.14093-6.83222,0-14.31275,6.30283-7.48464,6.30259-7.48464,8.929v70.11869q0,6.04467,1.83835,9.19149,2.88684,4.99194,11.03008,5.7778V599.203H272.76755v-6.30283q8.13706-1.57583,10.50456-3.67669,3.40994-3.15166,3.41417-12.08014V499.93373q0-8.6667-2.75764-11.42385-2.75752-2.75788-11.16109-4.07047v-6.30283h50.15989v18.908a53.31638,53.31638,0,0,1,12.08039-13.39321,41.13975,41.13975,0,0,1,25.73636-8.66645q13.39382,0,22.8477,7.6159Q395.933,492.5847,395.935,512.01387v65.917q0,6.83222,1.57559,9.717Q400.39746,592.90424,408.80321,592.90012Z"/><path class="8d1b6040-5efd-47e3-a6b4-2da340dc07bc" d="M706.28971,582.39556l3.93921,5.5148A47.96829,47.96829,0,0,1,697.098,598.94044a31.89191,31.89191,0,0,1-15.75684,3.93921q-12.08244,0-17.33291-6.30283-2.89265-3.4103-4.727-12.08063a61.59681,61.59681,0,0,1-24.94881,15.4948,54.75975,54.75975,0,0,1-16.80739,2.88866,29.624,29.624,0,0,1-19.171-6.56535q-9.71906-7.87842-9.717-21.53463,0-18.37958,21.27212-30.4636,13.6521-7.87842,49.3721-18.646v-19.171q0-11.28872-4.202-16.54487-5.2564-6.56123-18.90849-6.56535a19.25368,19.25368,0,0,0-11.02983,3.01991q-4.46848,3.02234-4.46449,6.43409,0,2.10546,3.93921,7.09087a17.04709,17.04709,0,0,1,3.93921,10.76707,13.70806,13.70806,0,0,1-5.77755,11.29259q-4.46848,3.41611-11.81763,3.41417-8.40805,0-12.86842-4.46473-4.46848-4.46231-4.46449-13.39321,0-13.39346,12.34315-22.58519,13.39346-9.97734,36.76643-9.97952,23.3708,0,37.94825,9.06023,14.57515,9.06047,14.575,26.91817v68.54311a10.71936,10.71936,0,0,0,.91929,4.596q.91724,1.9696,4.8585,1.96985a3.55989,3.55989,0,0,0,2.62614-1.05055Zm-47.27123-9.45449v-38.0795q-14.44582,3.15166-23.24148,11.68637-8.80183,8.53737-8.79771,20.0903a22.29261,22.29261,0,0,0,3.41393,12.21189,11.08288,11.08288,0,0,0,9.97952,5.38354,18.47172,18.47172,0,0,0,11.29259-3.93921A46.81148,46.81148,0,0,0,659.01848,572.94108Z"/><path class="8d1b6040-5efd-47e3-a6b4-2da340dc07bc" d="M425.96825,371.102c.47573-4.26444.92789-8.31753,1.4075-12.61673-.94379,0-1.66184-.00028-2.3799,0-11.40277.0051-22.80578.04688-34.2081-.02248-1.79254-.01089-2.521.381-2.76118,2.32772-1.06332,8.6183-2.30728,17.21486-3.57046,25.80685a2.3493,2.3493,0,0,1-1.33158,1.6085c-7.71563,2.13039-15.40088,4.42579-23.21264,6.13723-7.87136,1.7245-15.83619,3.15722-23.8303,4.15488-11.89887,1.485-23.83773,2.81117-35.79966,3.5864a246.37084,246.37084,0,0,1-39.66848-.44459c-7.02384-.67874-13.98055-1.64231-20.62986-4.08436a39.31416,39.31416,0,0,1-6.57191-3.21134,12.40375,12.40375,0,0,1-5.66872-7.795,113.40444,113.40444,0,0,1-3.16575-44.04441,135.52473,135.52473,0,0,1,3.1552-17.48335c8.26605-31.88331,25.874-56.87993,54.91963-73.16877a98.75967,98.75967,0,0,1,41.111-12.47207c51.88745-4.02461,94.62041,26.72246,111.40438,71.29724a111.58092,111.58092,0,0,1,6.39052,27.25655,134.32679,134.32679,0,0,1,.3348,24.76936,2.17987,2.17987,0,0,1-.72944,1.50942,52.90435,52.90435,0,0,1-14.18324,6.79028A6.20245,6.20245,0,0,1,425.96825,371.102Zm-143.60513,18.2553c-.46372-2.9329-.91444-5.63488-1.31437-8.34436-.81183-5.5-1.7694-10.98643-2.33124-16.51258-.37667-3.70482-.48929-4.20243-4.18171-4.10279-4.46787.12056-8.942.305-13.39265.69751-6.70134.591-13.37652,1.48524-20.08037,2.03723-2.1167.17429-2.41641,1.14188-2.18564,2.82864.04145.303.03813.61186.07158.91623A96.58607,96.58607,0,0,0,245.162,390.963a2.1025,2.1025,0,0,0,2.57428,1.58338c8.7103-.84821,17.42923-1.608,26.145-2.40069C276.66039,389.893,279.4386,389.62949,282.36312,389.35734Zm-43.79066-41.30909c3.80264-.28654,7.38831-.59527,10.97923-.81967,8.73908-.54612,17.47865-1.0907,26.22273-1.54546,1.84211-.0958,2.36805-.82453,2.57868-2.62688.80858-6.91889,1.83446-13.81258,2.797-20.71319.2812-2.01587.62125-4.02355.95681-6.1796-.93666,0-1.5414-.02313-2.14394.00344-11.2597.49628-22.51838,1.01731-33.77981,1.47038-1.13455.04565-1.43819.59428-1.6715,1.504C242.09775,328.55263,239.62665,337.9513,238.57246,348.04826Zm145.61669-33.25563a11.4817,11.4817,0,0,0,.00811,1.50115c1.3069,8.45609,2.6666,16.90433,3.90719,25.37.2136,1.45767.6974,1.92488,2.17744,1.91935,11.64395-.0436,23.28816-.004,34.93231.00266.647.00037,1.294-.064,1.97439-.1a9.70838,9.70838,0,0,0,.07914-1.09367,87.425,87.425,0,0,0-5.95143-26.36243,2.5208,2.5208,0,0,0-1.969-1.01644c-11.03036-.121-22.06159-.16194-33.09262-.22025C385.59749,314.78961,384.94027,314.79263,384.18915,314.79263ZM252.90294,302.20376a6.22641,6.22641,0,0,0,.846.097c10.40011-.3975,20.79945-.81666,31.20063-1.18363a2.16441,2.16441,0,0,0,2.107-1.66206c1.30928-3.42332,2.501-6.8959,3.92832-10.269,4.19523-9.91437,10.005-18.89631,16.18046-27.6606.89229-1.26636,1.6766-2.6088,2.59869-4.05363C294.5704,256.94043,257.2371,286.39761,252.90294,302.20376Zm160.27089-2.02344c-3.92915-14.635-41.97536-43.33611-56.68874-42.79868.70925,1.16478,1.35148,2.25036,2.02318,3.31739,4.16909,6.623,8.65906,13.0692,12.42115,19.91552,3.13874,5.71189,5.45881,11.87731,8.06565,17.87481a2.397,2.397,0,0,0,2.5893,1.69486c9.86284-.056,19.72624-.01437,29.58946-.004C411.818,300.18089,412.46215,300.18032,413.17383,300.18032Zm-86.85041,43.36041a2.84339,2.84339,0,0,0,.19155-.64128c.02185-8.949.01936-17.89818.067-26.847.00728-1.36112-.81262-1.24261-1.70058-1.22344-9.31359.201-18.62692.423-27.9415.5586-1.31768.01918-1.774.43264-1.99359,1.7153-1.217,7.10815-2.57513,14.19217-3.785,21.30145-.342,2.00931-.34838,4.07573-.51995,6.25919Zm-35.29534,15.954c0,.9389-.05836,1.60169.00968,2.25125.36922,3.52436.5495,7.08753,1.2125,10.55754.9267,4.85021,2.20083,9.63512,3.37475,14.43614a1.89654,1.89654,0,0,0,2.2,1.66193q13.48428-.64071,26.97791-1.07383c1.47052-.0466,1.84115-.50115,1.82869-1.91742-.07274-8.27031-.05154-16.54141-.07065-24.81224-.0015-.64306-.06878-1.286-.11974-2.17865Zm64.222,27.74215v-.05252c4.53277,0,9.06578-.0258,13.59812.018a1.82829,1.82829,0,0,0,2.13019-1.49184,129.14445,129.14445,0,0,0,4.21549-24.88872c.112-1.74512-.35193-2.33119-2.18282-2.31889-9.49373.06387-18.98836-.00214-28.48267-.02851-4.74527-.01318-4.85941-.01844-4.85274,4.865.01022,7.47081.22124,14.94117.28378,22.41226.0108,1.29521.60373,1.50718,1.69245,1.49918C346.1844,387.21759,350.71732,387.23688,355.25009,387.23688Zm20.17972-43.72623c-1.38377-9.15191-2.74254-18.088-4.07765-27.02761-.18163-1.216-.67611-1.73712-2.02752-1.72821q-13.87812.09142-27.757.00166c-1.51776-.01-1.98582.43366-1.973,1.96756.07027,8.394.03555,16.78894.0466,25.18353.0007.52615.08347,1.05219.13013,1.60307Zm-75.24062-43.00981a11.6348,11.6348,0,0,0,1.4009.1839c7.59623-.14387,15.19186-.34974,22.78865-.41122,1.62052-.01311,2.08788-.48218,2.08667-2.0796-.00932-12.07176.06492-24.14357.10312-36.21539a14.778,14.778,0,0,0-.14628-1.51565l-.49289-.1675C314.95038,272.0611,305.96376,285.10627,300.18919,300.50084Zm65.7086-.37512c-6.26573-14.91552-14.30122-28.24805-25.643-39.41078l-.49924.24379v39.167Z"/><path class="8d1b6040-5efd-47e3-a6b4-2da340dc07bc" d="M423.93857,411.27642c-1.57033,2.44181-2.98287,5.00372-4.73573,7.30659-15.50171,20.36584-35.53712,33.87407-60.51684,39.911a105.95169,105.95169,0,0,1-31.87087,2.94739c-13.63789-.88407-26.91959-3.46159-39.18768-9.88559-1.56744-.82077-3.04013-1.82335-4.54842-2.75512a11.30572,11.30572,0,0,1-.99508-.85506c25.17751.13714,49.80765-1.03752,73.93464-7.28825,24.09968-6.24368,46.02314-17.39193,67.29349-30.04305Z"/><path class="2fefb172-2768-436b-97b7-09924049f8d5" d="M228.99508,300.28263S189.48694,335.75305,191.6424,374.95c.75081,13.65342,7.19855,28.11642,17.60893,35.27863,23.21262,15.97,69.94883,41.83875,137.28863,22.3719,0,0,49.115-10.78707,81.67441-43.33685,0,0,32.00753-28.829,40.28534-68.517,0,0-26.489,51.47033-72.29287,65.7332,0,0-61.25579,34.10685-112.02636,22.94461,0,0-46.35574-10.54212-61.25579-32.24647C222.92469,377.17807,200.29868,354.85359,228.99508,300.28263Z"/></svg>