<svg id="070d5a2e-2562-44ef-880e-c77eca92e68c" data-name="Layer 1" xmlns="http://www.w3.org/2000/svg" viewBox="0 0 900 900"><defs><style>.\39 37e5760-980b-41cd-a6fc-2f98ee1cbddd{fill:#ff7c00;}.\39 11e4d39-d236-4864-8d6c-a1e83b0de0f0,.\39 37e5760-980b-41cd-a6fc-2f98ee1cbddd{fill-rule:evenodd;}.\39 11e4d39-d236-4864-8d6c-a1e83b0de0f0{fill:#0da31b;}.\37 02bbb06-5108-4a8d-a9c5-040e0bb68bd2{font-size:65px;fill:#194d7c;font-family:Panton-ExtraBlack, Panton ExtraBlack;font-style:bold;}</style></defs><title>itc2</title><path class="937e5760-980b-41cd-a6fc-2f98ee1cbddd" d="M461.83272,374.09017l-3.42878,7.67681-10.77788,24.11837a13.25158,13.25158,0,0,0,2.64474,1.49793c2.86709,1.01824,4.90329-6.31915,9.397-4.69265,4.49366,1.63836,3.27664-1.21695,8.98739-.81911,5.72246.40955,2.45746,6.331-.81918,7.75866-3.26493,1.42765-11.22258-.21071-4.69265,6.1203,6.54164,6.31929,3.066-4.2831,11.0353-4.2831s9.397,2.85545,10.00556,6.72885c.62019,3.87354-4.08418,4.69265-9.1981,6.93955-5.10221,2.23519-12.66195,7.1384-13.05978,11.83105-.42127,4.69265-4.49373,7.548-5.72246,2.64474-1.22873-4.8915-2.65645-5.09049-7.77037-2.44575-5.1022,2.65631-.60847,7.75866,3.47563,11.83105,4.08411,4.08411.60847,3.87354.60847,3.87354-12.01826-5.73432-17.48323-10.76624-19.8237-13.56312l-14.28859,31.9826-3.42878,7.67666-70.8109,158.48491c82.27918-28.21448,172.77343,0,172.77343,0V445.40419a22.78181,22.78181,0,0,1-5.38312-8.02765c-4.38838-12.1589,1.43944-11.8312,2.25854-19.37915.3862-3.54584-2.25854-4.29481-5.72239-2.867-8.08636,3.335-10.82467,2.04791-12.463-3.87354s0-7.548,0-7.548c-5.51183.62012-5.72246-5.90974-2.85537-7.5481,1.9777-1.12338,3.67455-4.50537,5.33627-7.16183a58.75335,58.75335,0,0,1,15.412,8.46077,1.41384,1.41384,0,0,1,.16385.11714c1.0766.83082,2.11812,1.69678,3.13622,2.58617.03514.03514.08193.07014.11707.10528V250.75915Zm9.28,75.72582c8.78847,0,7.96929,2.65645,14.90878,8.57791,6.9512,5.9096,3.27671,11.81934-.19892,16.313-3.47556,4.48209-6.54157,9.58415-8.17993,18.77061-1.62664,9.18631-5.90967,2.65645-7.34911.40955-1.42765-2.2469-3.67448-4.2831-3.05429-13.6684.59683-9.3853-5.9331-3.8734-8.17993-16.11415S462.3242,449.816,471.11267,449.816Z"/><path class="911e4d39-d236-4864-8d6c-a1e83b0de0f0" d="M487.07688,239.25779,529.391,185.73759l20.37348,66.66708S529.391,222.25441,487.07688,239.25779Z"/><path class="937e5760-980b-41cd-a6fc-2f98ee1cbddd" d="M536.41174,438.65191c-.04678-.5734-.12871-1.12338-.19892-1.68507q-.2282-1.86078-.56169-3.68612c-.11707-.62026-.24577-1.24052-.37448-1.86078-.26913-1.19366-.58512-2.38732-.92446-3.56927-.15214-.52655-.2692-1.06481-.44469-1.59136-.50319-1.57993-1.07667-3.12472-1.69685-4.64594-.26913-.64354-.58512-1.25209-.866-1.88406-.42134-.9011-.83089-1.79049-1.2873-2.65645-.39784-.77225-.83082-1.53308-1.2638-2.2819-.3862-.66711-.79582-1.32237-1.20538-1.97777-.51491-.81911-1.02981-1.62664-1.5915-2.41061-.29256-.43312-.632-.84253-.93617-1.26394a59.62357,59.62357,0,0,0-7.71188-8.4842c-.14042-.12871-.26913-.25742-.40955-.38613v45.13588c2.44575,2.56289,4.95007,4.8215,6.26073,7.88737,1.35751,3.13629,6.52993,6.02688,10.91831,7.99279.46805-1.53308.866-3.10115,1.217-4.69265.12871-.60854.22235-1.21709.33941-1.83735.22228-1.18195.40955-2.37547.55-3.59256.0585-.56169.14042-1.13509.19892-1.7085.15214-1.75535.2692-3.53413.2692-5.34791C536.69265,442.268,536.57559,440.45412,536.41174,438.65191Zm-96.439-39.472a58.98,58.98,0,0,0-15.85666,21.06422c.97131,10.97695,6.96291,16.7227,6.96291,16.7227a10.74574,10.74574,0,0,0,1.61493,2.34047l14.93213-33.422A46.99849,46.99849,0,0,1,439.97275,399.17993Zm76.96634,58.73414a3.21616,3.21616,0,0,0-2.82031-.03514,3.90025,3.90025,0,0,0-.30427,6.31929,10.04644,10.04644,0,0,0,3.12458,1.9542c1.60322.56183,3.20643.35113,3.92026-1.9542C521.702,461.4482,519.29127,458.80346,516.93909,457.91407Zm19.47265-19.26216c-.04678-.5734-.12871-1.12338-.19892-1.68507q-.2282-1.86078-.56169-3.68612c-.11707-.62026-.24577-1.24052-.37448-1.86078-.26913-1.19366-.58512-2.38732-.92446-3.56927-.15214-.52655-.2692-1.06481-.44469-1.59136-.50319-1.57993-1.07667-3.12472-1.69685-4.64594-.26913-.64354-.58512-1.25209-.866-1.88406-.42134-.9011-.83089-1.79049-1.2873-2.65645-.39784-.77225-.83082-1.53308-1.2638-2.2819-.3862-.66711-.79582-1.32237-1.20538-1.97777-.51491-.81911-1.02981-1.62664-1.5915-2.41061-.29256-.43312-.632-.84253-.93617-1.26394a59.62357,59.62357,0,0,0-7.71188-8.4842c-.14042-.12871-.26913-.25742-.40955-.38613v45.13588c2.44575,2.56289,4.95007,4.8215,6.26073,7.88737,1.35751,3.13629,6.52993,6.02688,10.91831,7.99279.46805-1.53308.866-3.10115,1.217-4.69265.12871-.60854.22235-1.21709.33941-1.83735.22228-1.18195.40955-2.37547.55-3.59256.0585-.56169.14042-1.13509.19892-1.7085.15214-1.75535.2692-3.53413.2692-5.34791C536.69265,442.268,536.57559,440.45412,536.41174,438.65191Zm-96.439-39.472a58.98,58.98,0,0,0-15.85666,21.06422c.97131,10.97695,6.96291,16.7227,6.96291,16.7227a10.74574,10.74574,0,0,0,1.61493,2.34047l14.93213-33.422A46.99849,46.99849,0,0,1,439.97275,399.17993Zm76.96634,58.73414a3.21616,3.21616,0,0,0-2.82031-.03514,3.90025,3.90025,0,0,0-.30427,6.31929,10.04644,10.04644,0,0,0,3.12458,1.9542c1.60322.56183,3.20643.35113,3.92026-1.9542C521.702,461.4482,519.29127,458.80346,516.93909,457.91407Zm19.47265-19.26216c-.04678-.5734-.12871-1.12338-.19892-1.68507q-.2282-1.86078-.56169-3.68612c-.11707-.62026-.24577-1.24052-.37448-1.86078-.26913-1.19366-.58512-2.38732-.92446-3.56927-.15214-.52655-.2692-1.06481-.44469-1.59136-.50319-1.57993-1.07667-3.12472-1.69685-4.64594-.26913-.64354-.58512-1.25209-.866-1.88406-.42134-.9011-.83089-1.79049-1.2873-2.65645-.39784-.77225-.83082-1.53308-1.2638-2.2819-.3862-.66711-.79582-1.32237-1.20538-1.97777-.51491-.81911-1.02981-1.62664-1.5915-2.41061-.29256-.43312-.632-.84253-.93617-1.26394a59.62357,59.62357,0,0,0-7.71188-8.4842c-.14042-.12871-.26913-.25742-.40955-.38613v45.13588c2.44575,2.56289,4.95007,4.8215,6.26073,7.88737,1.35751,3.13629,6.52993,6.02688,10.91831,7.99279.46805-1.53308.866-3.10115,1.217-4.69265.12871-.60854.22235-1.21709.33941-1.83735.22228-1.18195.40955-2.37547.55-3.59256.0585-.56169.14042-1.13509.19892-1.7085.15214-1.75535.2692-3.53413.2692-5.34791C536.69265,442.268,536.57559,440.45412,536.41174,438.65191Zm-19.47265,19.26216a3.21616,3.21616,0,0,0-2.82031-.03514,3.90025,3.90025,0,0,0-.30427,6.31929,10.04644,10.04644,0,0,0,3.12458,1.9542c1.60322.56183,3.20643.35113,3.92026-1.9542C521.702,461.4482,519.29127,458.80346,516.93909,457.91407Zm-76.96634-58.73414a58.98,58.98,0,0,0-15.85666,21.06422c.97131,10.97695,6.96291,16.7227,6.96291,16.7227a10.74574,10.74574,0,0,0,1.61493,2.34047l14.93213-33.422A46.99849,46.99849,0,0,1,439.97275,399.17993Zm0,0a58.98,58.98,0,0,0-15.85666,21.06422c.97131,10.97695,6.96291,16.7227,6.96291,16.7227a10.74574,10.74574,0,0,0,1.61493,2.34047l14.93213-33.422A46.99849,46.99849,0,0,1,439.97275,399.17993Zm76.96634,58.73414a3.21616,3.21616,0,0,0-2.82031-.03514,3.90025,3.90025,0,0,0-.30427,6.31929,10.04644,10.04644,0,0,0,3.12458,1.9542c1.60322.56183,3.20643.35113,3.92026-1.9542C521.702,461.4482,519.29127,458.80346,516.93909,457.91407Zm19.47265-19.26216c-.04678-.5734-.12871-1.12338-.19892-1.68507q-.2282-1.86078-.56169-3.68612c-.11707-.62026-.24577-1.24052-.37448-1.86078-.26913-1.19366-.58512-2.38732-.92446-3.56927-.15214-.52655-.2692-1.06481-.44469-1.59136-.50319-1.57993-1.07667-3.12472-1.69685-4.64594-.26913-.64354-.58512-1.25209-.866-1.88406-.42134-.9011-.83089-1.79049-1.2873-2.65645-.39784-.77225-.83082-1.53308-1.2638-2.2819-.3862-.66711-.79582-1.32237-1.20538-1.97777-.51491-.81911-1.02981-1.62664-1.5915-2.41061-.29256-.43312-.632-.84253-.93617-1.26394a59.62357,59.62357,0,0,0-7.71188-8.4842c-.14042-.12871-.26913-.25742-.40955-.38613v45.13588c2.44575,2.56289,4.95007,4.8215,6.26073,7.88737,1.35751,3.13629,6.52993,6.02688,10.91831,7.99279.46805-1.53308.866-3.10115,1.217-4.69265.12871-.60854.22235-1.21709.33941-1.83735.22228-1.18195.40955-2.37547.55-3.59256.0585-.56169.14042-1.13509.19892-1.7085.15214-1.75535.2692-3.53413.2692-5.34791C536.69265,442.268,536.57559,440.45412,536.41174,438.65191Zm0,0c-.04678-.5734-.12871-1.12338-.19892-1.68507q-.2282-1.86078-.56169-3.68612c-.11707-.62026-.24577-1.24052-.37448-1.86078-.26913-1.19366-.58512-2.38732-.92446-3.56927-.15214-.52655-.2692-1.06481-.44469-1.59136-.50319-1.57993-1.07667-3.12472-1.69685-4.64594-.26913-.64354-.58512-1.25209-.866-1.88406-.42134-.9011-.83089-1.79049-1.2873-2.65645-.39784-.77225-.83082-1.53308-1.2638-2.2819-.3862-.66711-.79582-1.32237-1.20538-1.97777-.51491-.81911-1.02981-1.62664-1.5915-2.41061-.29256-.43312-.632-.84253-.93617-1.26394a59.62357,59.62357,0,0,0-7.71188-8.4842c-.14042-.12871-.26913-.25742-.40955-.38613v45.13588c2.44575,2.56289,4.95007,4.8215,6.26073,7.88737,1.35751,3.13629,6.52993,6.02688,10.91831,7.99279.46805-1.53308.866-3.10115,1.217-4.69265.12871-.60854.22235-1.21709.33941-1.83735.22228-1.18195.40955-2.37547.55-3.59256.0585-.56169.14042-1.13509.19892-1.7085.15214-1.75535.2692-3.53413.2692-5.34791C536.69265,442.268,536.57559,440.45412,536.41174,438.65191Zm-19.47265,19.26216a3.21616,3.21616,0,0,0-2.82031-.03514,3.90025,3.90025,0,0,0-.30427,6.31929,10.04644,10.04644,0,0,0,3.12458,1.9542c1.60322.56183,3.20643.35113,3.92026-1.9542C521.702,461.4482,519.29127,458.80346,516.93909,457.91407Zm-76.96634-58.73414a58.98,58.98,0,0,0-15.85666,21.06422c.97131,10.97695,6.96291,16.7227,6.96291,16.7227a10.74574,10.74574,0,0,0,1.61493,2.34047l14.93213-33.422A46.99849,46.99849,0,0,1,439.97275,399.17993Zm76.96634-15.35333a71.75932,71.75932,0,1,0,32.82506,60.27879A71.61295,71.61295,0,0,0,516.93909,383.8266Zm0,112.59992a65.21843,65.21843,0,1,1,26.28342-52.32114A65.0446,65.0446,0,0,1,516.93909,496.42652Zm19.47265-57.77461c-.04678-.5734-.12871-1.12338-.19892-1.68507q-.2282-1.86078-.56169-3.68612c-.11707-.62026-.24577-1.24052-.37448-1.86078-.26913-1.19366-.58512-2.38732-.92446-3.56927-.15214-.52655-.2692-1.06481-.44469-1.59136-.50319-1.57993-1.07667-3.12472-1.69685-4.64594-.26913-.64354-.58512-1.25209-.866-1.88406-.42134-.9011-.83089-1.79049-1.2873-2.65645-.39784-.77225-.83082-1.53308-1.2638-2.2819-.3862-.66711-.79582-1.32237-1.20538-1.97777-.51491-.81911-1.02981-1.62664-1.5915-2.41061-.29256-.43312-.632-.84253-.93617-1.26394a59.62357,59.62357,0,0,0-7.71188-8.4842c-.14042-.12871-.26913-.25742-.40955-.38613v45.13588c2.44575,2.56289,4.95007,4.8215,6.26073,7.88737,1.35751,3.13629,6.52993,6.02688,10.91831,7.99279.46805-1.53308.866-3.10115,1.217-4.69265.12871-.60854.22235-1.21709.33941-1.83735.22228-1.18195.40955-2.37547.55-3.59256.0585-.56169.14042-1.13509.19892-1.7085.15214-1.75535.2692-3.53413.2692-5.34791C536.69265,442.268,536.57559,440.45412,536.41174,438.65191Zm-19.47265,19.26216a3.21616,3.21616,0,0,0-2.82031-.03514,3.90025,3.90025,0,0,0-.30427,6.31929,10.04644,10.04644,0,0,0,3.12458,1.9542c1.60322.56183,3.20643.35113,3.92026-1.9542C521.702,461.4482,519.29127,458.80346,516.93909,457.91407Zm-76.96634-58.73414a58.98,58.98,0,0,0-15.85666,21.06422c.97131,10.97695,6.96291,16.7227,6.96291,16.7227a10.74574,10.74574,0,0,0,1.61493,2.34047l14.93213-33.422A46.99849,46.99849,0,0,1,439.97275,399.17993Zm0,0a58.98,58.98,0,0,0-15.85666,21.06422c.97131,10.97695,6.96291,16.7227,6.96291,16.7227a10.74574,10.74574,0,0,0,1.61493,2.34047l14.93213-33.422A46.99849,46.99849,0,0,1,439.97275,399.17993Zm76.96634,58.73414a3.21616,3.21616,0,0,0-2.82031-.03514,3.90025,3.90025,0,0,0-.30427,6.31929,10.04644,10.04644,0,0,0,3.12458,1.9542c1.60322.56183,3.20643.35113,3.92026-1.9542C521.702,461.4482,519.29127,458.80346,516.93909,457.91407Zm19.47265-19.26216c-.04678-.5734-.12871-1.12338-.19892-1.68507q-.2282-1.86078-.56169-3.68612c-.11707-.62026-.24577-1.24052-.37448-1.86078-.26913-1.19366-.58512-2.38732-.92446-3.56927-.15214-.52655-.2692-1.06481-.44469-1.59136-.50319-1.57993-1.07667-3.12472-1.69685-4.64594-.26913-.64354-.58512-1.25209-.866-1.88406-.42134-.9011-.83089-1.79049-1.2873-2.65645-.39784-.77225-.83082-1.53308-1.2638-2.2819-.3862-.66711-.79582-1.32237-1.20538-1.97777-.51491-.81911-1.02981-1.62664-1.5915-2.41061-.29256-.43312-.632-.84253-.93617-1.26394a59.62357,59.62357,0,0,0-7.71188-8.4842c-.14042-.12871-.26913-.25742-.40955-.38613v45.13588c2.44575,2.56289,4.95007,4.8215,6.26073,7.88737,1.35751,3.13629,6.52993,6.02688,10.91831,7.99279.46805-1.53308.866-3.10115,1.217-4.69265.12871-.60854.22235-1.21709.33941-1.83735.22228-1.18195.40955-2.37547.55-3.59256.0585-.56169.14042-1.13509.19892-1.7085.15214-1.75535.2692-3.53413.2692-5.34791C536.69265,442.268,536.57559,440.45412,536.41174,438.65191Zm0,0c-.04678-.5734-.12871-1.12338-.19892-1.68507q-.2282-1.86078-.56169-3.68612c-.11707-.62026-.24577-1.24052-.37448-1.86078-.26913-1.19366-.58512-2.38732-.92446-3.56927-.15214-.52655-.2692-1.06481-.44469-1.59136-.50319-1.57993-1.07667-3.12472-1.69685-4.64594-.26913-.64354-.58512-1.25209-.866-1.88406-.42134-.9011-.83089-1.79049-1.2873-2.65645-.39784-.77225-.83082-1.53308-1.2638-2.2819-.3862-.66711-.79582-1.32237-1.20538-1.97777-.51491-.81911-1.02981-1.62664-1.5915-2.41061-.29256-.43312-.632-.84253-.93617-1.26394a59.62357,59.62357,0,0,0-7.71188-8.4842c-.14042-.12871-.26913-.25742-.40955-.38613v45.13588c2.44575,2.56289,4.95007,4.8215,6.26073,7.88737,1.35751,3.13629,6.52993,6.02688,10.91831,7.99279.46805-1.53308.866-3.10115,1.217-4.69265.12871-.60854.22235-1.21709.33941-1.83735.22228-1.18195.40955-2.37547.55-3.59256.0585-.56169.14042-1.13509.19892-1.7085.15214-1.75535.2692-3.53413.2692-5.34791C536.69265,442.268,536.57559,440.45412,536.41174,438.65191Zm-19.47265,19.26216a3.21616,3.21616,0,0,0-2.82031-.03514,3.90025,3.90025,0,0,0-.30427,6.31929,10.04644,10.04644,0,0,0,3.12458,1.9542c1.60322.56183,3.20643.35113,3.92026-1.9542C521.702,461.4482,519.29127,458.80346,516.93909,457.91407Zm-76.96634-58.73414a58.98,58.98,0,0,0-15.85666,21.06422c.97131,10.97695,6.96291,16.7227,6.96291,16.7227a10.74574,10.74574,0,0,0,1.61493,2.34047l14.93213-33.422A46.99849,46.99849,0,0,1,439.97275,399.17993Zm96.439,39.472c-.04678-.5734-.12871-1.12338-.19892-1.68507q-.2282-1.86078-.56169-3.68612c-.11707-.62026-.24577-1.24052-.37448-1.86078-.26913-1.19366-.58512-2.38732-.92446-3.56927-.15214-.52655-.2692-1.06481-.44469-1.59136-.50319-1.57993-1.07667-3.12472-1.69685-4.64594-.26913-.64354-.58512-1.25209-.866-1.88406-.42134-.9011-.83089-1.79049-1.2873-2.65645-.39784-.77225-.83082-1.53308-1.2638-2.2819-.3862-.66711-.79582-1.32237-1.20538-1.97777-.51491-.81911-1.02981-1.62664-1.5915-2.41061-.29256-.43312-.632-.84253-.93617-1.26394a59.62357,59.62357,0,0,0-7.71188-8.4842c-.14042-.12871-.26913-.25742-.40955-.38613v45.13588c2.44575,2.56289,4.95007,4.8215,6.26073,7.88737,1.35751,3.13629,6.52993,6.02688,10.91831,7.99279.46805-1.53308.866-3.10115,1.217-4.69265.12871-.60854.22235-1.21709.33941-1.83735.22228-1.18195.40955-2.37547.55-3.59256.0585-.56169.14042-1.13509.19892-1.7085.15214-1.75535.2692-3.53413.2692-5.34791C536.69265,442.268,536.57559,440.45412,536.41174,438.65191Zm-96.439-39.472a58.98,58.98,0,0,0-15.85666,21.06422c.97131,10.97695,6.96291,16.7227,6.96291,16.7227a10.74574,10.74574,0,0,0,1.61493,2.34047l14.93213-33.422A46.99849,46.99849,0,0,1,439.97275,399.17993Zm76.96634,58.73414a3.21616,3.21616,0,0,0-2.82031-.03514,3.90025,3.90025,0,0,0-.30427,6.31929,10.04644,10.04644,0,0,0,3.12458,1.9542c1.60322.56183,3.20643.35113,3.92026-1.9542C521.702,461.4482,519.29127,458.80346,516.93909,457.91407Z"/><text class="702bbb06-5108-4a8d-a9c5-040e0bb68bd2" transform="translate(384.56371 693.36984) rotate(-3.09325)">ITC</text></svg>